<?xml version="1.0" encoding="UTF-8"?>
<svg id="Layer_1" data-name="Layer 1" xmlns="http://www.w3.org/2000/svg" viewBox="0 0 32 20.39">
  <defs>
    <style>
      .cls-1 {
        fill: #757575;
      }
    </style>
  </defs>
  <path class="cls-1" d="m31.84,6.12C30.81.68,25.36,0,25.36,0H.96C.16,0,.06,1.06.06,1.06.06,1.06-.05,10.83.03,16.83c.22,3.23,3.45,3.56,3.45,3.56,0,0,11.02-.03,15.95-.07,3.25-.57,3.58-3.42,3.54-4.98,5.81.32,9.9-3.78,8.87-9.22h0Zm-14.75,4.68c-1.66,1.93-5.35,5.3-5.35,5.3,0,0-.16.16-.42.03-.1-.07-.14-.12-.14-.12-.6-.59-4.49-4.06-5.38-5.27-.94-1.29-1.38-3.6-.12-4.95,1.26-1.34,4.01-1.45,5.82.54,0,0,2.08-2.38,4.62-1.28,2.54,1.1,2.44,4.02.96,5.75h.01Zm8.23.64c-1.24.16-2.24.04-2.24.04V3.91h2.36s2.63.73,2.63,3.52c0,2.55-1.31,3.56-2.74,4.02h-.01Z"/>
</svg>